<mxfile host="drawio-plugin" modified="2022-01-31T04:32:48.815Z" agent="5.0 (Windows NT 6.2; Win64; x64) AppleWebKit/537.36 (KHTML, like Gecko) Chrome/89.0.4389.114 Safari/537.36" etag="BGrYazGP_WDrtlvszyRa" version="15.5.4" type="embed"><diagram id="mnbSNg_MuW425caBX1FD" name="Page-1"><mxGraphModel dx="974" dy="444" grid="1" gridSize="10" guides="1" tooltips="1" connect="1" arrows="1" fold="1" page="1" pageScale="1" pageWidth="850" pageHeight="1100" math="0" shadow="0"><root><mxCell id="0"/><mxCell id="1" parent="0"/><mxCell id="30" value="" style="edgeStyle=none;html=1;endArrow=none;endFill=0;strokeWidth=2;" parent="1" source="16" target="22" edge="1"><mxGeometry relative="1" as="geometry"><mxPoint x="442" y="642" as="targetPoint"/></mxGeometry></mxCell><mxCell id="16" value="User" style="rounded=0;whiteSpace=wrap;html=1;strokeColor=#FFAA00;strokeWidth=4;" parent="1" vertex="1"><mxGeometry x="212" y="412" width="120" height="60" as="geometry"/></mxCell><mxCell id="18" value="Blog" style="rounded=0;whiteSpace=wrap;html=1;strokeColor=#FFAA00;strokeWidth=4;" parent="1" vertex="1"><mxGeometry x="507" y="187" width="120" height="60" as="geometry"/></mxCell><mxCell id="32" value="" style="edgeStyle=none;html=1;endArrow=classic;endFill=1;strokeWidth=8;startArrow=none;startFill=0;" parent="1" source="19" target="21" edge="1"><mxGeometry relative="1" as="geometry"/></mxCell><mxCell id="84" style="rounded=0;orthogonalLoop=1;jettySize=auto;html=1;endArrow=none;endFill=0;strokeWidth=2;" edge="1" parent="1" source="19" target="83"><mxGeometry relative="1" as="geometry"/></mxCell><mxCell id="19" value="Comment" style="rounded=0;whiteSpace=wrap;html=1;" parent="1" vertex="1"><mxGeometry x="542" y="417" width="120" height="60" as="geometry"/></mxCell><mxCell id="34" value="" style="edgeStyle=none;html=1;endArrow=none;endFill=0;strokeWidth=2;startArrow=none;startFill=0;" parent="1" source="20" target="18" edge="1"><mxGeometry relative="1" as="geometry"/></mxCell><mxCell id="61" style="edgeStyle=none;html=1;startArrow=none;startFill=0;strokeWidth=2;endArrow=none;endFill=0;" parent="1" source="20" target="16" edge="1"><mxGeometry relative="1" as="geometry"/></mxCell><mxCell id="20" value="blog_likes" style="rhombus;whiteSpace=wrap;html=1;fillColor=#60a917;fontColor=#ffffff;strokeColor=#2D7600;" parent="1" vertex="1"><mxGeometry x="212" y="177" width="120" height="80" as="geometry"/></mxCell><mxCell id="33" value="" style="edgeStyle=none;html=1;endArrow=none;endFill=0;strokeWidth=2;" parent="1" source="21" target="18" edge="1"><mxGeometry relative="1" as="geometry"/></mxCell><mxCell id="74" style="edgeStyle=none;rounded=0;orthogonalLoop=1;jettySize=auto;html=1;endArrow=none;endFill=0;strokeWidth=2;" parent="1" source="18" target="73" edge="1"><mxGeometry relative="1" as="geometry"/></mxCell><mxCell id="21" value="has" style="rhombus;whiteSpace=wrap;html=1;" parent="1" vertex="1"><mxGeometry x="521" y="277" width="120" height="80" as="geometry"/></mxCell><mxCell id="31" value="" style="edgeStyle=none;html=1;endArrow=none;endFill=0;strokeWidth=8;startArrow=classic;startFill=1;" parent="1" source="22" target="19" edge="1"><mxGeometry relative="1" as="geometry"><mxPoint x="502" y="477" as="sourcePoint"/></mxGeometry></mxCell><mxCell id="22" value="writes" style="rhombus;whiteSpace=wrap;html=1;" parent="1" vertex="1"><mxGeometry x="358" y="402" width="120" height="80" as="geometry"/></mxCell><mxCell id="28" style="edgeStyle=none;html=1;endArrow=none;endFill=0;strokeWidth=2;" parent="1" source="24" target="16" edge="1"><mxGeometry relative="1" as="geometry"/></mxCell><mxCell id="29" style="edgeStyle=none;html=1;endArrow=none;endFill=0;strokeWidth=8;startArrow=classic;startFill=1;" parent="1" source="24" target="18" edge="1"><mxGeometry relative="1" as="geometry"/></mxCell><mxCell id="24" value="posts" style="rhombus;whiteSpace=wrap;html=1;fillColor=#f0a30a;fontColor=#000000;strokeColor=#BD7000;" parent="1" vertex="1"><mxGeometry x="350" y="297" width="120" height="80" as="geometry"/></mxCell><mxCell id="54" style="edgeStyle=none;html=1;startArrow=none;startFill=0;endArrow=none;endFill=0;strokeWidth=8;" parent="1" source="35" target="18" edge="1"><mxGeometry relative="1" as="geometry"/></mxCell><mxCell id="35" value="content" style="ellipse;whiteSpace=wrap;html=1;" parent="1" vertex="1"><mxGeometry x="600" y="50" width="100" height="70" as="geometry"/></mxCell><mxCell id="58" style="edgeStyle=none;html=1;startArrow=none;startFill=0;endArrow=none;endFill=0;strokeWidth=8;" parent="1" source="36" target="19" edge="1"><mxGeometry relative="1" as="geometry"/></mxCell><mxCell id="36" value="content" style="ellipse;whiteSpace=wrap;html=1;" parent="1" vertex="1"><mxGeometry x="692" y="454" width="100" height="70" as="geometry"/></mxCell><mxCell id="56" style="edgeStyle=none;html=1;startArrow=none;startFill=0;endArrow=none;endFill=0;strokeWidth=8;" parent="1" source="37" target="18" edge="1"><mxGeometry relative="1" as="geometry"/></mxCell><mxCell id="37" value="&lt;b&gt;&lt;u&gt;ID&lt;/u&gt;&lt;/b&gt;" style="ellipse;whiteSpace=wrap;html=1;" parent="1" vertex="1"><mxGeometry x="397" y="80" width="100" height="70" as="geometry"/></mxCell><mxCell id="57" style="edgeStyle=none;html=1;startArrow=none;startFill=0;endArrow=none;endFill=0;strokeWidth=8;" parent="1" source="39" target="19" edge="1"><mxGeometry relative="1" as="geometry"/></mxCell><mxCell id="39" value="&lt;b&gt;&lt;u&gt;ID&lt;/u&gt;&lt;/b&gt;" style="ellipse;whiteSpace=wrap;html=1;" parent="1" vertex="1"><mxGeometry x="692" y="367" width="100" height="70" as="geometry"/></mxCell><mxCell id="48" value="" style="edgeStyle=none;html=1;startArrow=none;startFill=0;endArrow=none;endFill=0;strokeWidth=8;" parent="1" source="40" target="16" edge="1"><mxGeometry relative="1" as="geometry"/></mxCell><mxCell id="40" value="&lt;b&gt;&lt;u&gt;ID&lt;/u&gt;&lt;/b&gt;" style="ellipse;whiteSpace=wrap;html=1;" parent="1" vertex="1"><mxGeometry x="140" y="297" width="100" height="70" as="geometry"/></mxCell><mxCell id="60" style="edgeStyle=none;html=1;exitX=0.5;exitY=1;exitDx=0;exitDy=0;entryX=0.5;entryY=0;entryDx=0;entryDy=0;startArrow=none;startFill=0;endArrow=none;endFill=0;strokeWidth=2;" parent="1" edge="1"><mxGeometry relative="1" as="geometry"><mxPoint x="90" y="130" as="targetPoint"/></mxGeometry></mxCell><mxCell id="49" style="edgeStyle=none;html=1;startArrow=none;startFill=0;endArrow=none;endFill=0;strokeWidth=8;" parent="1" source="43" target="16" edge="1"><mxGeometry relative="1" as="geometry"/></mxCell><mxCell id="43" value="&lt;u&gt;username&lt;/u&gt;" style="ellipse;whiteSpace=wrap;html=1;" parent="1" vertex="1"><mxGeometry x="50" y="342" width="100" height="70" as="geometry"/></mxCell><mxCell id="50" style="edgeStyle=none;html=1;startArrow=none;startFill=0;endArrow=none;endFill=0;strokeWidth=2;" parent="1" source="44" target="16" edge="1"><mxGeometry relative="1" as="geometry"/></mxCell><mxCell id="44" value="email" style="ellipse;whiteSpace=wrap;html=1;" parent="1" vertex="1"><mxGeometry x="263" y="538" width="100" height="70" as="geometry"/></mxCell><mxCell id="52" style="edgeStyle=none;html=1;startArrow=none;startFill=0;endArrow=none;endFill=0;strokeWidth=8;" parent="1" source="45" target="16" edge="1"><mxGeometry relative="1" as="geometry"/></mxCell><mxCell id="45" value="password" style="ellipse;whiteSpace=wrap;html=1;" parent="1" vertex="1"><mxGeometry x="30" y="420" width="100" height="70" as="geometry"/></mxCell><mxCell id="55" style="edgeStyle=none;html=1;startArrow=none;startFill=0;endArrow=none;endFill=0;strokeWidth=8;" parent="1" source="46" target="18" edge="1"><mxGeometry relative="1" as="geometry"/></mxCell><mxCell id="46" value="created_at" style="ellipse;whiteSpace=wrap;html=1;" parent="1" vertex="1"><mxGeometry x="670" y="117" width="100" height="70" as="geometry"/></mxCell><mxCell id="53" style="edgeStyle=none;html=1;startArrow=none;startFill=0;endArrow=none;endFill=0;strokeWidth=8;" parent="1" source="47" target="18" edge="1"><mxGeometry relative="1" as="geometry"/></mxCell><mxCell id="47" value="title" style="ellipse;whiteSpace=wrap;html=1;" parent="1" vertex="1"><mxGeometry x="490" y="40" width="100" height="70" as="geometry"/></mxCell><mxCell id="64" value="" style="edgeStyle=none;html=1;startArrow=none;startFill=0;endArrow=none;endFill=0;strokeWidth=2;" parent="1" source="63" target="20" edge="1"><mxGeometry relative="1" as="geometry"/></mxCell><mxCell id="63" value="created_at" style="ellipse;whiteSpace=wrap;html=1;" parent="1" vertex="1"><mxGeometry x="72" y="182" width="100" height="70" as="geometry"/></mxCell><mxCell id="67" style="edgeStyle=none;html=1;startArrow=none;startFill=0;endArrow=none;endFill=0;strokeWidth=2;" parent="1" source="66" target="16" edge="1"><mxGeometry relative="1" as="geometry"/></mxCell><mxCell id="68" style="edgeStyle=none;html=1;startArrow=none;startFill=0;endArrow=none;endFill=0;strokeWidth=2;" parent="1" source="66" target="19" edge="1"><mxGeometry relative="1" as="geometry"/></mxCell><mxCell id="72" style="rounded=0;orthogonalLoop=1;jettySize=auto;html=1;endArrow=none;endFill=0;" parent="1" source="66" target="69" edge="1"><mxGeometry relative="1" as="geometry"><mxPoint x="430" y="720" as="targetPoint"/></mxGeometry></mxCell><mxCell id="66" value="comment_likes" style="rhombus;whiteSpace=wrap;html=1;fillColor=#60a917;fontColor=#ffffff;strokeColor=#2D7600;" parent="1" vertex="1"><mxGeometry x="397" y="567" width="120" height="80" as="geometry"/></mxCell><mxCell id="69" value="created_at" style="ellipse;whiteSpace=wrap;html=1;strokeColor=default;" parent="1" vertex="1"><mxGeometry x="407" y="690" width="100" height="70" as="geometry"/></mxCell><mxCell id="73" value="comment_count" style="ellipse;whiteSpace=wrap;html=1;dashed=1;" parent="1" vertex="1"><mxGeometry x="666" y="199" width="100" height="70" as="geometry"/></mxCell><mxCell id="76" value="" style="edgeStyle=none;rounded=0;orthogonalLoop=1;jettySize=auto;html=1;endArrow=none;endFill=0;strokeWidth=2;" parent="1" source="75" target="20" edge="1"><mxGeometry relative="1" as="geometry"/></mxCell><mxCell id="75" value="blog_like_count" style="ellipse;whiteSpace=wrap;html=1;dashed=1;" parent="1" vertex="1"><mxGeometry x="222" y="70" width="100" height="70" as="geometry"/></mxCell><mxCell id="78" value="" style="edgeStyle=none;rounded=0;orthogonalLoop=1;jettySize=auto;html=1;endArrow=none;endFill=0;strokeWidth=2;" parent="1" source="77" target="19" edge="1"><mxGeometry relative="1" as="geometry"/></mxCell><mxCell id="77" value="comment_like_count" style="ellipse;whiteSpace=wrap;html=1;dashed=1;" parent="1" vertex="1"><mxGeometry x="527" y="540" width="100" height="70" as="geometry"/></mxCell><mxCell id="81" style="edgeStyle=none;rounded=0;orthogonalLoop=1;jettySize=auto;html=1;endArrow=none;endFill=0;strokeWidth=2;" parent="1" source="79" target="16" edge="1"><mxGeometry relative="1" as="geometry"/></mxCell><mxCell id="79" value="firstname" style="ellipse;whiteSpace=wrap;html=1;" parent="1" vertex="1"><mxGeometry x="56" y="500" width="100" height="70" as="geometry"/></mxCell><mxCell id="82" style="edgeStyle=none;rounded=0;orthogonalLoop=1;jettySize=auto;html=1;endArrow=none;endFill=0;strokeWidth=2;" parent="1" source="80" target="16" edge="1"><mxGeometry relative="1" as="geometry"/></mxCell><mxCell id="80" value="lastname" style="ellipse;whiteSpace=wrap;html=1;" parent="1" vertex="1"><mxGeometry x="153" y="540" width="100" height="70" as="geometry"/></mxCell><mxCell id="83" value="created_at" style="ellipse;whiteSpace=wrap;html=1;strokeColor=default;" vertex="1" parent="1"><mxGeometry x="641" y="524" width="100" height="70" as="geometry"/></mxCell></root></mxGraphModel></diagram></mxfile>